<?xml version="1.0" encoding="utf-8"?>
<!-- Generator: Adobe Illustrator 27.5.0, SVG Export Plug-In . SVG Version: 6.00 Build 0)  -->
<svg version="1.1" id="Capa_1" xmlns="http://www.w3.org/2000/svg" xmlns:xlink="http://www.w3.org/1999/xlink" x="0px" y="0px"
	 viewBox="0 0 425.2 425.2" style="enable-background:new 0 0 425.2 425.2;" xml:space="preserve">
<rect x="0.002" y="0.002" style="fill:#003949;" width="425.196" height="425.196"/>
<g>
	<path style="fill:#B2B2B2;" d="M394.105,348.855c0,11.137-69.412,20.167-155.037,20.167c-85.627,0-155.039-9.03-155.039-20.167
		c0-11.138,69.412-20.168,155.039-20.168C324.693,328.688,394.105,337.718,394.105,348.855z"/>
	<g>
		<g>
			<g>
				<path style="fill:#C6C6C6;" d="M134.168,331.735v4.258c0,8.425,6.838,15.266,15.271,15.266h97.979
					c8.434,0,15.271-6.841,15.271-15.266v-4.258H134.168z"/>
				<g>
					<path style="fill:#00B5CF;" d="M254.574,89.574V69.396c0-7.305-5.914-13.218-13.213-13.218h-84.396
						c-7.295,0-13.201,5.913-13.201,13.218v20.179H254.574z"/>
					<path style="fill:#DADADA;" d="M160.273,91.771V69.396c0-1.421-1.154-2.576-2.576-2.576c-1.41,0-2.563,1.155-2.563,2.576
						v22.376H160.273z"/>
					<path style="fill:#DADADA;" d="M176.879,91.771V69.396c0-1.421-1.146-2.576-2.563-2.576c-1.418,0-2.572,1.155-2.572,2.576
						v22.376H176.879z"/>
					<path style="fill:#DADADA;" d="M193.496,91.771V69.396c0-1.421-1.152-2.576-2.568-2.576c-1.418,0-2.57,1.155-2.57,2.576v22.376
						H193.496z"/>
					<path style="fill:#DADADA;" d="M210.104,91.771V69.396c0-1.421-1.145-2.576-2.568-2.576c-1.418,0-2.566,1.155-2.566,2.576
						v22.376H210.104z"/>
					<path style="fill:#DADADA;" d="M226.715,91.771V69.396c0-1.421-1.143-2.576-2.566-2.576c-1.42,0-2.566,1.155-2.566,2.576
						v22.376H226.715z"/>
					<path style="fill:#DADADA;" d="M243.332,91.771V69.396c0-1.421-1.152-2.576-2.572-2.576c-1.412,0-2.568,1.155-2.568,2.576
						v22.376H243.332z"/>
					<path style="fill:#0099AF;" d="M257.875,92.872c0,1.824-1.482,3.3-3.301,3.3H142.289c-1.816,0-3.301-1.476-3.301-3.3l0,0
						c0-1.821,1.484-3.298,3.301-3.298h112.285C256.393,89.574,257.875,91.051,257.875,92.872L257.875,92.872z"/>
					<path style="fill:#DADADA;" d="M257.838,93.24c0.012-0.123,0.037-0.239,0.037-0.368c0-1.821-1.482-3.298-3.301-3.298H142.289
						c-1.816,0-3.301,1.477-3.301,3.298c0,0.129,0.029,0.245,0.039,0.368H257.838z"/>
				</g>
				<rect x="145.045" y="96.172" style="fill:#C0C0C0;" width="106.773" height="10.082"/>
				<path style="fill:#EDEDED;" d="M272.141,321.779c0,9.67-7.842,17.51-17.52,17.51H142.234c-9.666,0-17.51-7.84-17.51-17.51
					V123.766c0-9.673,7.844-17.512,17.51-17.512h112.387c9.678,0,17.52,7.839,17.52,17.512V321.779z"/>
				<path style="fill:#DADADA;" d="M264.168,314.788c0,9.358-6.992,16.947-15.621,16.947H148.318
					c-8.633,0-15.627-7.589-15.627-16.947V123.199c0-9.357,6.994-16.945,15.627-16.945h100.229c8.629,0,15.621,7.588,15.621,16.945
					V314.788z"/>
			</g>
			<g>
				<path style="fill:#EFEEEE;" d="M256.123,285.331c-4.916,9.901-16.918,13.945-26.82,9.036
					c-9.898-4.909-13.941-16.916-9.033-26.818c4.908-9.891,16.918-13.936,26.813-9.027
					C256.984,263.434,261.025,275.435,256.123,285.331z"/>
				<g>
					<path style="fill:#B2B2B2;" d="M257.016,283.188l-35.584-17.654c-0.416,0.647-0.813,1.313-1.162,2.016
						c-0.715,1.44-1.217,2.924-1.559,4.427l34.834,17.271c0.979-1.182,1.865-2.478,2.578-3.916
						C256.467,284.627,256.756,283.913,257.016,283.188z"/>
				</g>
				<g>
					<path style="fill:#9D9D9C;" d="M256.328,284.877c0.252-0.553,0.486-1.119,0.688-1.689l-35.584-17.654
						c-0.324,0.512-0.635,1.039-0.924,1.576L256.328,284.877z"/>
				</g>
				<path style="fill:#C6C6C6;" d="M231.305,290.331c-9.232-4.577-13.369-15.343-9.891-24.804c-0.387,0.605-0.748,1.236-1.084,1.9
					c-4.908,9.896-0.863,21.899,9.035,26.814c9.9,4.909,21.906,0.861,26.814-9.033c0.33-0.664,0.607-1.336,0.863-2.009
					C251.609,291.695,240.543,294.912,231.305,290.331z"/>
			</g>
			<g>
				<path style="fill:#EFEEEE;" d="M189.664,254.415c-4.906,9.899-16.91,13.94-26.805,9.03c-9.902-4.91-13.951-16.912-9.035-26.814
					c4.908-9.899,16.912-13.939,26.807-9.03C190.535,232.511,194.574,244.513,189.664,254.415z"/>
				<g>
					<path style="fill:#B2B2B2;" d="M190.57,252.268l-35.582-17.657c-0.424,0.65-0.818,1.314-1.164,2.021
						c-0.713,1.436-1.217,2.922-1.561,4.418l34.832,17.276c0.982-1.176,1.855-2.476,2.568-3.911
						C190.014,253.709,190.313,252.992,190.57,252.268z"/>
				</g>
				<g>
					<path style="fill:#9D9D9C;" d="M189.877,253.962c0.254-0.557,0.488-1.127,0.693-1.693l-35.582-17.657
						c-0.334,0.513-0.643,1.035-0.928,1.58L189.877,253.962z"/>
				</g>
				<path style="fill:#C6C6C6;" d="M164.855,259.412c-9.236-4.586-13.369-15.347-9.885-24.809c-0.393,0.611-0.758,1.241-1.086,1.903
					c-4.906,9.901-0.867,21.903,9.035,26.811c9.896,4.91,21.902,0.866,26.813-9.033c0.324-0.663,0.611-1.33,0.857-2.012
					C185.162,260.767,174.094,263.991,164.855,259.412z"/>
			</g>
			<g>
				<path style="fill:#EFEEEE;" d="M225.467,284.245c-4.916,9.895-16.918,13.943-26.818,9.029
					c-9.9-4.906-13.943-16.915-9.033-26.806c4.91-9.904,16.918-13.947,26.813-9.038C226.33,262.341,230.369,274.344,225.467,284.245
					z"/>
				<g>
					<path style="fill:#B2B2B2;" d="M226.365,282.099l-35.59-17.654c-0.414,0.65-0.811,1.314-1.16,2.024
						c-0.717,1.437-1.215,2.914-1.561,4.413l34.834,17.277c0.98-1.176,1.865-2.478,2.578-3.914
						C225.811,283.541,226.104,282.82,226.365,282.099z"/>
				</g>
				<g>
					<path style="fill:#9D9D9C;" d="M225.672,283.789c0.254-0.559,0.488-1.125,0.693-1.69l-35.59-17.654
						c-0.324,0.509-0.635,1.031-0.924,1.579L225.672,283.789z"/>
				</g>
				<path style="fill:#C6C6C6;" d="M200.648,289.241c-9.232-4.581-13.367-15.346-9.891-24.804c-0.387,0.604-0.748,1.237-1.078,1.897
					c-4.914,9.901-0.867,21.903,9.029,26.813c9.9,4.911,21.904,0.862,26.816-9.029c0.33-0.663,0.609-1.334,0.863-2.013
					C220.957,290.605,209.887,293.823,200.648,289.241z"/>
			</g>
			<g>
				<path style="fill:#EFEEEE;" d="M173.701,264.43c6.635,8.834,4.846,21.377-3.986,28.015c-8.832,6.638-21.375,4.848-28.012-3.991
					c-6.637-8.83-4.85-21.374,3.99-28.006C154.521,253.811,167.068,255.6,173.701,264.43z"/>
				<g>
					<path style="fill:#B2B2B2;" d="M172.186,262.658L140.42,286.51c0.389,0.667,0.813,1.317,1.283,1.943
						c0.965,1.288,2.063,2.403,3.246,3.381l31.092-23.344c-0.611-1.411-1.375-2.781-2.34-4.061
						C173.227,263.803,172.721,263.218,172.186,262.658z"/>
				</g>
				<g>
					<path style="fill:#9D9D9C;" d="M173.383,264.039c-0.379-0.479-0.777-0.936-1.197-1.381L140.42,286.51
						c0.309,0.522,0.643,1.037,0.996,1.541L173.383,264.039z"/>
				</g>
				<path style="fill:#C6C6C6;" d="M167.006,288.838c-8.244,6.196-19.715,5.047-26.6-2.317c0.365,0.621,0.768,1.231,1.213,1.826
					c6.633,8.831,19.172,10.619,28.01,3.986c8.838-6.638,10.621-19.185,3.986-28.011c-0.447-0.6-0.918-1.147-1.41-1.674
					C177.354,271.318,175.252,282.647,167.006,288.838z"/>
			</g>
			<g>
				<path style="fill:#EFEEEE;" d="M181.523,255.304c10.988-1.135,20.818,6.86,21.947,17.855
					c1.133,10.982-6.861,20.815-17.857,21.944c-10.992,1.133-20.816-6.864-21.951-17.848
					C162.535,266.262,170.525,256.429,181.523,255.304z"/>
				<g>
					<path style="fill:#B2B2B2;" d="M179.227,255.686l4.061,39.516c0.764,0.002,1.547-0.015,2.326-0.099
						c1.596-0.161,3.121-0.529,4.57-1.04l-3.979-38.68c-1.525-0.195-3.088-0.246-4.682-0.079
						C180.74,255.383,179.971,255.516,179.227,255.686z"/>
				</g>
				<g>
					<path style="fill:#9D9D9C;" d="M181.023,255.368c-0.609,0.079-1.209,0.188-1.797,0.317l4.061,39.516
						c0.609,0.002,1.217-0.015,1.828-0.066L181.023,255.368z"/>
				</g>
				<path style="fill:#C6C6C6;" d="M198.982,273.618c1.061,10.254-5.832,19.493-15.695,21.601c0.721,0.006,1.449-0.025,2.186-0.102
					c10.99-1.132,18.986-10.956,17.854-21.947c-1.129-10.99-10.953-18.986-21.943-17.852c-0.738,0.072-1.457,0.194-2.166,0.345
					C189.305,255.721,197.93,263.355,198.982,273.618z"/>
			</g>
			<g>
				<path style="fill:#EFEEEE;" d="M222.102,234.057c10.996-1.135,20.818,6.86,21.947,17.855
					c1.137,10.983-6.861,20.814-17.85,21.942c-10.992,1.134-20.816-6.862-21.953-17.851
					C203.115,245.012,211.111,235.186,222.102,234.057z"/>
				<g>
					<path style="fill:#B2B2B2;" d="M219.805,234.438l4.064,39.515c0.77,0,1.543-0.015,2.33-0.099
						c1.594-0.162,3.117-0.532,4.564-1.038l-3.971-38.682c-1.529-0.202-3.098-0.245-4.691-0.078
						C221.316,234.132,220.561,234.27,219.805,234.438z"/>
				</g>
				<g>
					<path style="fill:#9D9D9C;" d="M221.604,234.12c-0.604,0.072-1.213,0.185-1.799,0.318l4.064,39.515
						c0.602,0,1.213-0.015,1.832-0.064L221.604,234.12z"/>
				</g>
				<path style="fill:#C6C6C6;" d="M239.568,252.371c1.057,10.254-5.84,19.494-15.699,21.6c0.725,0.009,1.453-0.024,2.186-0.098
					c10.994-1.131,18.988-10.963,17.857-21.953c-1.129-10.989-10.959-18.982-21.955-17.85c-0.732,0.076-1.449,0.194-2.152,0.348
					C229.885,234.47,238.516,242.107,239.568,252.371z"/>
			</g>
			<g>
				<path style="fill:#EFEEEE;" d="M175.957,315.445c-4.91,9.9-16.912,13.945-26.814,9.036c-9.895-4.909-13.941-16.914-9.031-26.814
					c4.912-9.898,16.918-13.939,26.816-9.033C176.826,293.549,180.865,305.555,175.957,315.445z"/>
				<g>
					<path style="fill:#B2B2B2;" d="M176.861,313.303l-35.582-17.651c-0.422,0.645-0.814,1.309-1.168,2.017
						c-0.711,1.436-1.213,2.917-1.559,4.422l34.83,17.276c0.99-1.187,1.867-2.476,2.574-3.921
						C176.311,314.738,176.6,314.022,176.861,313.303z"/>
				</g>
				<g>
					<path style="fill:#9D9D9C;" d="M176.164,314.993c0.26-0.559,0.494-1.124,0.697-1.69l-35.582-17.651
						c-0.332,0.507-0.643,1.035-0.932,1.576L176.164,314.993z"/>
				</g>
				<path style="fill:#C6C6C6;" d="M151.146,320.441c-9.236-4.586-13.369-15.339-9.885-24.802c-0.396,0.612-0.758,1.233-1.088,1.901
					c-4.906,9.896-0.863,21.903,9.033,26.814c9.9,4.904,21.91,0.857,26.818-9.033c0.326-0.66,0.609-1.339,0.854-2.014
					C171.451,321.802,160.389,325.025,151.146,320.441z"/>
			</g>
			<g>
				<path style="fill:#EFEEEE;" d="M229.322,315.445c-4.916,9.9-16.92,13.945-26.814,9.036c-9.9-4.909-13.943-16.914-9.033-26.814
					c4.91-9.898,16.914-13.939,26.813-9.033C230.182,293.549,234.225,305.555,229.322,315.445z"/>
				<g>
					<path style="fill:#B2B2B2;" d="M230.221,313.303l-35.586-17.651c-0.418,0.645-0.811,1.309-1.16,2.017
						c-0.707,1.436-1.217,2.917-1.563,4.422l34.832,17.276c0.982-1.187,1.861-2.476,2.578-3.921
						C229.668,314.738,229.961,314.022,230.221,313.303z"/>
				</g>
				<g>
					<path style="fill:#9D9D9C;" d="M229.527,314.993c0.256-0.559,0.49-1.124,0.693-1.69l-35.586-17.651
						c-0.326,0.507-0.635,1.035-0.926,1.576L229.527,314.993z"/>
				</g>
				<path style="fill:#C6C6C6;" d="M204.508,320.441c-9.238-4.586-13.365-15.339-9.891-24.802c-0.387,0.612-0.756,1.233-1.078,1.901
					c-4.912,9.896-0.869,21.903,9.033,26.814c9.895,4.904,21.898,0.857,26.809-9.033c0.33-0.66,0.611-1.339,0.857-2.014
					C224.816,321.802,213.742,325.025,204.508,320.441z"/>
			</g>
			<g>
				<path style="fill:#EFEEEE;" d="M217.088,255.366c-4.912,9.897-16.918,13.94-26.813,9.032
					c-9.904-4.911-13.943-16.916-9.035-26.815c4.91-9.898,16.914-13.945,26.814-9.034
					C217.951,233.457,221.998,245.463,217.088,255.366z"/>
				<g>
					<path style="fill:#B2B2B2;" d="M217.988,253.217l-35.582-17.652c-0.422,0.641-0.814,1.305-1.166,2.019
						c-0.713,1.437-1.215,2.925-1.557,4.418l34.828,17.274c0.984-1.18,1.863-2.474,2.576-3.908
						C217.438,254.658,217.729,253.94,217.988,253.217z"/>
				</g>
				<g>
					<path style="fill:#9D9D9C;" d="M217.293,254.906c0.26-0.555,0.492-1.125,0.695-1.689l-35.582-17.652
						c-0.332,0.5-0.639,1.031-0.932,1.58L217.293,254.906z"/>
				</g>
				<path style="fill:#C6C6C6;" d="M192.277,260.359c-9.24-4.587-13.369-15.344-9.893-24.809c-0.385,0.611-0.75,1.242-1.082,1.903
					c-4.908,9.898-0.865,21.903,9.037,26.814c9.898,4.913,21.898,0.864,26.809-9.034c0.328-0.663,0.607-1.33,0.859-2.013
					C212.582,261.718,201.512,264.94,192.277,260.359z"/>
			</g>
			<g>
				<path style="fill:#EFEEEE;" d="M201.463,294.549c6.635,8.835,4.854,21.379-3.986,28.011c-8.832,6.633-21.375,4.852-28.008-3.984
					c-6.635-8.837-4.85-21.381,3.988-28.013C182.291,283.93,194.83,285.709,201.463,294.549z"/>
				<g>
					<path style="fill:#B2B2B2;" d="M199.953,292.781l-31.768,23.848c0.391,0.664,0.807,1.319,1.283,1.946
						c0.963,1.285,2.059,2.4,3.246,3.377l31.092-23.347c-0.613-1.411-1.379-2.774-2.344-4.057
						C200.996,293.916,200.482,293.339,199.953,292.781z"/>
				</g>
				<g>
					<path style="fill:#9D9D9C;" d="M201.148,294.158c-0.377-0.479-0.781-0.941-1.195-1.377l-31.768,23.848
						c0.313,0.525,0.641,1.033,0.992,1.539L201.148,294.158z"/>
				</g>
				<path style="fill:#C6C6C6;" d="M194.771,318.958c-8.248,6.186-19.713,5.043-26.604-2.316c0.373,0.612,0.766,1.227,1.213,1.817
					c6.633,8.84,19.18,10.621,28.01,3.99c8.838-6.637,10.621-19.18,3.986-28.018c-0.438-0.588-0.916-1.143-1.408-1.67
					C205.117,301.435,203.023,312.764,194.771,318.958z"/>
			</g>
			<g>
				<path style="fill:#EFEEEE;" d="M238.789,286.651c10.994-1.13,20.818,6.86,21.947,17.857c1.133,10.988-6.859,20.821-17.855,21.95
					c-10.98,1.125-20.82-6.859-21.943-17.853C219.805,297.61,227.799,287.781,238.789,286.651z"/>
				<g>
					<path style="fill:#B2B2B2;" d="M236.492,287.041l4.064,39.506c0.77,0.016,1.545-0.01,2.324-0.089
						c1.602-0.167,3.123-0.537,4.578-1.036l-3.984-38.682c-1.523-0.205-3.088-0.255-4.686-0.089
						C238.006,286.731,237.242,286.867,236.492,287.041z"/>
				</g>
				<g>
					<path style="fill:#9D9D9C;" d="M238.293,286.721c-0.607,0.078-1.211,0.183-1.801,0.32l4.064,39.506
						c0.605,0.009,1.217-0.01,1.834-0.058L238.293,286.721z"/>
				</g>
				<path style="fill:#C6C6C6;" d="M256.256,304.969c1.053,10.256-5.84,19.49-15.699,21.603c0.725,0.002,1.453-0.026,2.188-0.099
					c10.99-1.133,18.981-10.963,17.854-21.954c-1.127-10.993-10.957-18.985-21.951-17.846c-0.73,0.067-1.453,0.187-2.154,0.342
					C246.572,287.072,255.203,294.711,256.256,304.969z"/>
			</g>
		</g>
		<g>
			<path style="fill:#DADADA;" d="M317.57,166.012v152.167c0,18.27,14.809,33.08,33.078,33.08c18.268,0,33.08-14.81,33.08-33.08
				V166.012H317.57z"/>
			<path style="fill:#EDEDED;" d="M323.809,172.154v142.073c0,17.06,12.014,30.89,26.84,30.89s26.842-13.83,26.842-30.89V172.154
				H323.809z"/>
			<path style="fill:#A9382A;" d="M326.543,227.443v81.718c0,15.977,10.793,28.926,24.105,28.926s24.1-12.949,24.1-28.926v-81.718
				H326.543z"/>
			<path style="fill:#C13A2A;" d="M326.543,234.495v71.304c0,13.938,9.418,25.232,21.035,25.232
				c11.619,0,21.027-11.295,21.027-25.232v-71.304H326.543z"/>
			<g>
				<path style="fill:#FFFFFF;" d="M336.953,244.751c-0.609,1.398-2.232,2.027-3.621,1.411c-1.389-0.606-2.023-2.232-1.414-3.619
					c0.611-1.395,2.238-2.025,3.621-1.412C336.928,241.74,337.566,243.363,336.953,244.751z"/>
				<path style="fill:#FFFFFF;" d="M336.855,258.511c-0.77,1.767-2.824,2.563-4.586,1.795c-1.758-0.772-2.563-2.827-1.787-4.591
					c0.77-1.758,2.82-2.563,4.584-1.785C336.826,254.701,337.633,256.753,336.855,258.511z"/>
				<path style="fill:#FFFFFF;" d="M339.939,250.038c-0.32,0.737-1.18,1.077-1.914,0.757c-0.732-0.329-1.07-1.184-0.746-1.917
					c0.326-0.735,1.174-1.074,1.912-0.742C339.924,248.452,340.258,249.308,339.939,250.038z"/>
				<path style="fill:#FFFFFF;" d="M348.781,245.048c-0.838,1.911-3.064,2.781-4.971,1.941c-1.902-0.838-2.775-3.059-1.939-4.969
					c0.84-1.908,3.063-2.777,4.967-1.941C348.75,240.917,349.617,243.143,348.781,245.048z"/>
				<path style="fill:#FFFFFF;" d="M359.074,294.813c-0.84,1.91-3.064,2.775-4.973,1.942c-1.906-0.837-2.775-3.059-1.943-4.971
					c0.842-1.904,3.063-2.773,4.975-1.941C359.043,290.684,359.914,292.91,359.074,294.813z"/>
				<path style="fill:#FFFFFF;" d="M348.176,253.659c-0.322,0.731-1.178,1.067-1.912,0.745c-0.73-0.328-1.066-1.182-0.744-1.912
					c0.32-0.739,1.174-1.066,1.912-0.746C348.162,252.066,348.496,252.926,348.176,253.659z"/>
				<path style="fill:#FFFFFF;" d="M347.486,266.385c-0.406,0.928-1.488,1.346-2.414,0.942c-0.928-0.411-1.35-1.491-0.943-2.421
					c0.408-0.925,1.482-1.346,2.414-0.935C347.465,264.375,347.895,265.457,347.486,266.385z"/>
				<path style="fill:#FFFFFF;" d="M339.883,271.554c-0.377,0.849-1.371,1.237-2.217,0.866c-0.85-0.377-1.234-1.363-0.863-2.215
					c0.371-0.85,1.363-1.24,2.215-0.865C339.865,269.714,340.256,270.703,339.883,271.554z"/>
				<path style="fill:#FFFFFF;" d="M348.248,284.421c-0.684,1.563-2.504,2.273-4.06,1.583c-1.559-0.677-2.262-2.496-1.58-4.053
					c0.68-1.56,2.498-2.266,4.055-1.589C348.221,281.049,348.926,282.867,348.248,284.421z"/>
				<path style="fill:#FFFFFF;" d="M351.685,276.578c-0.338,0.777-1.25,1.133-2.031,0.792c-0.773-0.347-1.129-1.249-0.785-2.028
					c0.334-0.779,1.248-1.131,2.023-0.791C351.67,274.887,352.027,275.801,351.685,276.578z"/>
				<path style="fill:#FFFFFF;" d="M354.451,270.435c-0.207,0.461-0.748,0.678-1.205,0.474c-0.465-0.206-0.678-0.74-0.475-1.21
					c0.203-0.46,0.74-0.672,1.209-0.472C354.438,269.433,354.652,269.975,354.451,270.435z"/>
				<path style="fill:#FFFFFF;" d="M356.578,281.712c-0.201,0.462-0.744,0.671-1.207,0.476c-0.463-0.207-0.674-0.75-0.463-1.206
					c0.197-0.47,0.736-0.68,1.197-0.478C356.574,280.709,356.785,281.251,356.578,281.712z"/>
			</g>
			<path style="fill:#E3E3E3;" d="M350.176,166.012H317.57v152.167c0,18.108,14.553,32.806,32.605,33.055V166.012z"/>
			<path style="fill:#C6C6C6;" d="M387.98,166.012c0,4.111-1.623,7.438-3.637,7.438h-68.141c-2.008,0-3.633-3.326-3.633-7.438l0,0
				c0-4.113,1.625-7.439,3.633-7.439h68.141C386.357,158.572,387.98,161.898,387.98,166.012L387.98,166.012z"/>
			<path style="fill:#C6C6C6;" d="M312.57,166.012L312.57,166.012c0,4.111,1.625,7.438,3.633,7.438h68.141
				c2.014,0,3.637-3.326,3.637-7.438l0,0H312.57z"/>
		</g>
		<g>
			<path style="fill:#C6C6C6;" d="M233.506,341.724v2.08c0,4.118,4.266,7.455,9.533,7.455h61.207c5.262,0,9.535-3.337,9.535-7.455
				v-2.08H233.506z"/>
			<g>
				<path style="fill:#00B5CF;" d="M320.377,209.443V195.83c0-6.154-4.986-11.141-11.141-11.141h-71.186
					c-6.148,0-11.141,4.986-11.141,11.141v13.613H320.377z"/>
				<path style="fill:#DADADA;" d="M240.838,211.305v-18.879c0-1.203-0.963-2.17-2.168-2.17c-1.199,0-2.164,0.967-2.164,2.17v18.879
					H240.838z"/>
				<path style="fill:#DADADA;" d="M254.854,211.305v-18.879c0-1.203-0.975-2.17-2.172-2.17c-1.191,0-2.166,0.967-2.166,2.17v18.879
					H254.854z"/>
				<path style="fill:#DADADA;" d="M268.859,211.305v-18.879c0-1.203-0.967-2.17-2.158-2.17c-1.203,0-2.172,0.967-2.172,2.17v18.879
					H268.859z"/>
				<path style="fill:#DADADA;" d="M282.875,211.305v-18.879c0-1.203-0.973-2.17-2.166-2.17c-1.199,0-2.168,0.967-2.168,2.17v18.879
					H282.875z"/>
				<path style="fill:#DADADA;" d="M296.887,211.305v-18.879c0-1.203-0.971-2.17-2.168-2.17c-1.195,0-2.164,0.967-2.164,2.17v18.879
					H296.887z"/>
				<path style="fill:#DADADA;" d="M310.9,211.305v-18.879c0-1.203-0.975-2.17-2.168-2.17c-1.199,0-2.172,0.967-2.172,2.17v18.879
					H310.9z"/>
				<path style="fill:#0099AF;" d="M323.166,212.232c0,1.541-1.254,2.78-2.789,2.78h-94.705c-1.531,0-2.783-1.239-2.783-2.78l0,0
					c0-1.544,1.252-2.789,2.783-2.789h94.705C321.912,209.443,323.166,210.688,323.166,212.232L323.166,212.232z"/>
				<path style="fill:#DADADA;" d="M323.131,212.539c0.008-0.101,0.035-0.198,0.035-0.307c0-1.544-1.254-2.789-2.789-2.789h-94.705
					c-1.531,0-2.783,1.245-2.783,2.789c0,0.108,0.025,0.206,0.027,0.307H323.131z"/>
			</g>
			<path style="fill:#EDEDED;" d="M227.605,215.013v120.489c0,6.043,4.893,10.941,10.938,10.941h70.199
				c6.039,0,10.936-4.898,10.936-10.941V215.013H227.605z"/>
			<path style="fill:#DADADA;" d="M232.576,215.013v116.124c0,5.842,4.373,10.587,9.76,10.587h62.609
				c5.389,0,9.758-4.745,9.758-10.587V215.013H232.576z"/>
			<path style="fill:#F59B21;" d="M234.484,266.259v62.429c0,5.566,4.166,10.09,9.305,10.09h59.705c5.135,0,9.299-4.523,9.299-10.09
				v-62.429H234.484z"/>
			<path style="fill:#DADADA;" d="M273.379,266.259h-38.895v62.429c0,5.566,4.166,10.09,9.305,10.09h29.59V266.259z"/>
		</g>
		<g>
			<path style="fill:#C6C6C6;" d="M124.025,330.77c-1.352,7.694-8.059,12.948-14.98,11.733l-67.627-11.872
				c-6.918-1.215-11.436-8.44-10.086-16.133l24.459-139.33c1.352-7.694,8.063-12.946,14.98-11.732l67.629,11.871
				c6.918,1.216,11.436,8.437,10.086,16.135L124.025,330.77z"/>
			<path style="fill:#DADADA;" d="M121.545,327.6c-1.297,7.4-7.604,12.477-14.084,11.341l-63.336-11.118
				c-6.48-1.14-10.68-8.061-9.381-15.461l23.527-134.024c1.301-7.4,7.605-12.478,14.088-11.339l63.332,11.117
				c6.482,1.139,10.682,8.061,9.383,15.463L121.545,327.6z"/>
			<g>
				<g>
					<g>
						
							<line style="fill:none;stroke:#C6C6C6;stroke-width:2.1556;stroke-miterlimit:10;" x1="103.373" y1="176.273" x2="102.814" y2="179.458"/>
						
							<line style="fill:none;stroke:#C6C6C6;stroke-width:2.1556;stroke-miterlimit:10;stroke-dasharray:6.49,6.49;" x1="101.691" y1="185.851" x2="77.563" y2="323.284"/>
						
							<line style="fill:none;stroke:#C6C6C6;stroke-width:2.1556;stroke-miterlimit:10;" x1="77.002" y1="326.48" x2="76.443" y2="329.665"/>
					</g>
				</g>
			</g>
			<g>
				<path style="fill:#C6C6C6;" d="M92.572,195.967c-1.365,7.768-8.766,12.956-16.533,11.593
					c-7.766-1.364-12.959-8.765-11.594-16.532c1.363-7.767,8.766-12.959,16.531-11.594
					C88.746,180.795,93.936,188.199,92.572,195.967z"/>
				<path style="fill:#DE6050;" d="M89.988,194.055c-1.227,6.981-7.883,11.65-14.867,10.425c-6.988-1.227-11.654-7.883-10.43-14.867
					c1.229-6.986,7.881-11.655,14.869-10.429C86.547,180.41,91.213,187.065,89.988,194.055z"/>
				<path style="fill:#FFFFFF;" d="M67.256,188.778c1.014-5.785,6.527-9.653,12.314-8.637
					C85.355,181.157,66.236,194.564,67.256,188.778z"/>
				<path style="fill:#C6C6C6;" d="M88.867,186.203c0.242,1.412,0.262,2.881,0,4.369C87.643,197.559,80.982,202.225,74,201
					c-4.207-0.738-7.563-3.455-9.309-7.023c0.885,5.206,4.934,9.539,10.43,10.502c6.984,1.225,13.641-3.443,14.867-10.429
					C90.477,191.274,90.02,188.555,88.867,186.203z"/>
			</g>
			<g>
				<path style="fill:#C6C6C6;" d="M134.949,203.404c-1.363,7.771-8.768,12.959-16.535,11.596
					c-7.764-1.363-12.957-8.766-11.592-16.533c1.363-7.768,8.766-12.961,16.529-11.596
					C131.121,188.235,136.311,195.638,134.949,203.404z"/>
				<path style="fill:#DE6050;" d="M132.365,201.49c-1.227,6.984-7.883,11.655-14.869,10.428
					c-6.984-1.225-11.652-7.882-10.428-14.867c1.227-6.985,7.885-11.655,14.869-10.429
					C128.924,187.852,133.59,194.505,132.365,201.49z"/>
				<path style="fill:#FFFFFF;" d="M109.633,196.219c1.014-5.787,6.527-9.655,12.314-8.637
					C127.732,188.598,108.615,202.003,109.633,196.219z"/>
				<path style="fill:#C6C6C6;" d="M131.246,193.643c0.238,1.411,0.258,2.879,0,4.368c-1.229,6.984-7.885,11.654-14.867,10.427
					c-4.209-0.738-7.564-3.455-9.311-7.02c0.889,5.204,4.932,9.534,10.428,10.499c6.986,1.228,13.643-3.443,14.869-10.428
					C132.852,198.715,132.396,195.995,131.246,193.643z"/>
			</g>
			<g>
				<path style="fill:#C6C6C6;" d="M86.422,230.996c-1.363,7.768-8.766,12.96-16.533,11.597
					c-7.766-1.364-12.959-8.768-11.596-16.534c1.365-7.766,8.766-12.956,16.533-11.595C82.596,215.828,87.783,223.23,86.422,230.996
					z"/>
				<path style="fill:#DE6050;" d="M83.836,229.082c-1.225,6.985-7.879,11.655-14.867,10.428
					c-6.982-1.227-11.652-7.883-10.426-14.867c1.227-6.982,7.883-11.653,14.871-10.426
					C80.395,215.443,85.064,222.098,83.836,229.082z"/>
				<path style="fill:#FFFFFF;" d="M61.104,223.811c1.016-5.787,6.531-9.654,12.316-8.64
					C79.203,216.188,60.092,229.596,61.104,223.811z"/>
				<path style="fill:#C6C6C6;" d="M82.719,221.234c0.242,1.409,0.258,2.881,0,4.368c-1.226,6.984-7.883,11.655-14.869,10.427
					c-4.207-0.739-7.563-3.455-9.309-7.017c0.889,5.202,4.932,9.533,10.428,10.497c6.988,1.228,13.643-3.442,14.867-10.428
					C84.324,226.306,83.869,223.588,82.719,221.234z"/>
			</g>
			<g>
				<path style="fill:#C6C6C6;" d="M128.799,238.438c-1.363,7.766-8.764,12.959-16.535,11.592
					c-7.766-1.362-12.955-8.765-11.592-16.531c1.363-7.767,8.766-12.958,16.531-11.594
					C124.971,223.268,130.164,230.67,128.799,238.438z"/>
				<path style="fill:#DE6050;" d="M126.217,236.522c-1.227,6.984-7.885,11.653-14.869,10.427
					c-6.986-1.227-11.656-7.881-10.428-14.866c1.227-6.985,7.885-11.652,14.869-10.429
					C122.773,222.884,127.441,229.539,126.217,236.522z"/>
				<path style="fill:#FFFFFF;" d="M103.482,231.248c1.014-5.783,6.527-9.651,12.314-8.637
					C121.582,223.628,102.467,237.035,103.482,231.248z"/>
				<path style="fill:#C6C6C6;" d="M125.094,228.674c0.242,1.412,0.262,2.88,0,4.368c-1.225,6.986-7.881,11.652-14.865,10.427
					c-4.209-0.737-7.564-3.453-9.309-7.018c0.885,5.203,4.934,9.534,10.428,10.498c6.984,1.227,13.643-3.442,14.867-10.427
					C126.703,233.745,126.244,231.028,125.094,228.674z"/>
			</g>
			<g>
				<path style="fill:#C6C6C6;" d="M80.271,266.027c-1.363,7.768-8.764,12.959-16.531,11.597
					c-7.768-1.364-12.957-8.77-11.596-16.535c1.363-7.765,8.766-12.956,16.533-11.595C76.445,250.861,81.635,258.262,80.271,266.027
					z"/>
				<path style="fill:#DE6050;" d="M77.689,264.112c-1.229,6.987-7.885,11.656-14.867,10.431
					c-6.986-1.227-11.654-7.885-10.428-14.869c1.225-6.985,7.881-11.654,14.867-10.429
					C74.246,250.473,78.914,257.129,77.689,264.112z"/>
				<path style="fill:#FFFFFF;" d="M54.955,258.841c1.014-5.786,6.531-9.652,12.314-8.638
					C73.055,251.22,53.939,264.627,54.955,258.841z"/>
				<path style="fill:#C6C6C6;" d="M76.57,256.266c0.238,1.41,0.262,2.881-0.002,4.368c-1.229,6.985-7.883,11.657-14.867,10.431
					c-4.211-0.739-7.563-3.456-9.307-7.023c0.883,5.205,4.932,9.535,10.428,10.502c6.983,1.226,13.641-3.443,14.867-10.431
					C78.176,261.336,77.719,258.62,76.57,256.266z"/>
			</g>
			<g>
				<path style="fill:#C6C6C6;" d="M122.65,273.465c-1.365,7.768-8.766,12.958-16.535,11.598
					c-7.766-1.363-12.955-8.767-11.594-16.534c1.361-7.766,8.766-12.957,16.533-11.594
					C118.822,258.298,124.012,265.7,122.65,273.465z"/>
				<path style="fill:#DE6050;" d="M120.064,271.554c-1.225,6.985-7.881,11.654-14.867,10.428
					c-6.986-1.226-11.65-7.882-10.426-14.868c1.225-6.985,7.881-11.654,14.867-10.426
					C116.623,257.911,121.291,264.568,120.064,271.554z"/>
				<path style="fill:#FFFFFF;" d="M97.332,266.279c1.016-5.785,6.529-9.652,12.313-8.637
					C115.434,258.661,96.316,272.067,97.332,266.279z"/>
				<path style="fill:#C6C6C6;" d="M118.947,263.704c0.238,1.412,0.26,2.88-0.002,4.37c-1.227,6.984-7.885,11.655-14.867,10.428
					c-4.207-0.736-7.564-3.455-9.309-7.02c0.885,5.203,4.93,9.534,10.428,10.499c6.986,1.227,13.643-3.442,14.867-10.428
					C120.553,268.773,120.098,266.059,118.947,263.704z"/>
			</g>
			<g>
				<path style="fill:#C6C6C6;" d="M74.123,301.06c-1.363,7.766-8.764,12.956-16.533,11.592
					c-7.768-1.363-12.959-8.764-11.594-16.531c1.361-7.767,8.764-12.958,16.531-11.594C70.295,285.89,75.486,293.293,74.123,301.06z
					"/>
				<path style="fill:#DE6050;" d="M71.537,299.147c-1.227,6.984-7.883,11.651-14.867,10.428
					c-6.984-1.228-11.652-7.885-10.428-14.868c1.229-6.986,7.885-11.657,14.869-10.429C68.098,285.503,72.764,292.16,71.537,299.147
					z"/>
				<path style="fill:#FFFFFF;" d="M48.807,293.873c1.014-5.786,6.529-9.654,12.315-8.638
					C66.904,286.251,47.789,299.657,48.807,293.873z"/>
				<path style="fill:#C6C6C6;" d="M70.418,291.296c0.238,1.409,0.262,2.88,0,4.372c-1.227,6.984-7.885,11.651-14.869,10.427
					c-4.207-0.739-7.559-3.458-9.307-7.022c0.885,5.205,4.932,9.537,10.428,10.502c6.984,1.224,13.641-3.443,14.869-10.429
					C72.027,296.368,71.57,293.648,70.418,291.296z"/>
			</g>
			<g>
				<path style="fill:#C6C6C6;" d="M116.5,308.499c-1.365,7.768-8.764,12.958-16.535,11.595
					c-7.764-1.363-12.957-8.765-11.592-16.533c1.361-7.766,8.764-12.959,16.529-11.594
					C112.672,293.326,117.863,300.732,116.5,308.499z"/>
				<path style="fill:#DE6050;" d="M113.914,306.587c-1.225,6.985-7.881,11.65-14.867,10.427
					c-6.984-1.229-11.652-7.884-10.43-14.869c1.23-6.984,7.885-11.654,14.871-10.428C110.475,292.944,115.145,299.6,113.914,306.587
					z"/>
				<path style="fill:#FFFFFF;" d="M91.182,301.311c1.018-5.786,6.527-9.653,12.314-8.635
					C109.281,293.688,90.166,307.096,91.182,301.311z"/>
				<path style="fill:#C6C6C6;" d="M112.795,298.735c0.24,1.41,0.26,2.88,0,4.37c-1.227,6.984-7.883,11.655-14.867,10.428
					c-4.209-0.738-7.563-3.457-9.309-7.021c0.885,5.205,4.932,9.536,10.428,10.501c6.986,1.224,13.643-3.445,14.867-10.43
					C114.402,303.807,113.947,301.09,112.795,298.735z"/>
			</g>
		</g>
	</g>
</g>
</svg>
